<svg data-v-423bf9ae="" xmlns="http://www.w3.org/2000/svg" viewBox="0 0 578 90" class="iconLeftSlogan"><!----><!----><!----><g data-v-423bf9ae="" id="70341673-27c0-462f-8f18-77ddf197b3fa" fill="black" transform="matrix(4.507888986286435,0,0,4.507888986286435,89.03241982149055,-17.310293441514865)"><path d="M7.36 14.35L7.36 12.63L3.22 12.63L3.22 10.26L7.22 10.26L7.22 8.54L3.22 8.54L3.22 6.30L7.36 6.30L7.36 4.58L1.12 4.58L1.12 14.35ZM16.41 14.35L16.41 12.85L15.61 12.85L15.61 9.69C15.61 7.87 14.43 6.96 12.46 6.96C10.85 6.96 9.80 7.56 9.32 8.37L10.46 9.38C10.85 8.85 11.35 8.47 12.22 8.47C13.17 8.47 13.54 8.92 13.54 9.77L13.54 10.14L12.38 10.14C10.26 10.14 9.13 10.85 9.13 12.36C9.13 13.72 10.05 14.52 11.45 14.52C12.56 14.52 13.40 14.01 13.65 13.08L13.72 13.08C13.80 13.89 14.36 14.35 15.22 14.35ZM12.24 13.16C11.58 13.16 11.16 12.89 11.16 12.39L11.16 12.11C11.16 11.55 11.61 11.26 12.43 11.26L13.54 11.26L13.54 12.12C13.54 12.80 12.96 13.16 12.24 13.16ZM20.92 14.52C23.06 14.52 24.28 13.57 24.28 12.07C24.28 10.70 23.25 10.15 21.95 9.95L20.80 9.77C20.24 9.69 19.91 9.56 19.91 9.14C19.91 8.67 20.33 8.41 21.11 8.41C22.05 8.41 22.74 8.78 23.16 9.24L24.19 8.06C23.59 7.36 22.60 6.96 21.18 6.96C19.10 6.96 17.88 7.87 17.88 9.38C17.88 10.75 18.90 11.30 20.19 11.49L21.35 11.68C21.91 11.76 22.25 11.89 22.25 12.29C22.25 12.81 21.74 13.06 20.93 13.06C19.96 13.06 19.21 12.70 18.65 12.08L17.49 13.16C18.07 14 19.32 14.52 20.92 14.52ZM30.14 10.16L29.51 12.26L29.40 12.26L28.74 10.16L27.69 7.13L25.47 7.13L28.38 14.31L27.93 15.54L26.19 15.54L26.19 17.15L27.62 17.15C28.85 17.15 29.51 16.56 29.93 15.51L33.33 7.13L31.22 7.13ZM43.08 14.35L46.83 14.35C48.68 14.35 49.78 13.30 49.78 11.66C49.78 10.35 49.08 9.62 47.88 9.32L47.88 9.24C48.90 8.95 49.48 8.29 49.48 7.18C49.48 5.59 48.41 4.58 46.51 4.58L43.08 4.58ZM45.12 12.88L45.12 10.12L46.19 10.12C47.18 10.12 47.64 10.42 47.64 11.30L47.64 11.70C47.64 12.60 47.18 12.88 46.19 12.88ZM45.12 8.72L45.12 6.05L45.92 6.05C46.90 6.05 47.33 6.31 47.33 7.17L47.33 7.59C47.33 8.44 46.90 8.72 45.92 8.72ZM55.82 14.35L57.89 14.35L57.89 7.13L55.82 7.13L55.82 11.87C55.82 12.57 55.19 12.92 54.54 12.92C53.73 12.92 53.33 12.43 53.33 11.52L53.33 7.13L51.25 7.13L51.25 11.80C51.25 13.55 52.22 14.52 53.61 14.52C54.77 14.52 55.41 13.85 55.73 13.03L55.82 13.03ZM62.92 14.52C65.06 14.52 66.28 13.57 66.28 12.07C66.28 10.70 65.25 10.15 63.95 9.95L62.80 9.77C62.24 9.69 61.91 9.56 61.91 9.14C61.91 8.67 62.33 8.41 63.11 8.41C64.05 8.41 64.74 8.78 65.16 9.24L66.19 8.06C65.59 7.36 64.60 6.96 63.18 6.96C61.10 6.96 59.88 7.87 59.88 9.38C59.88 10.75 60.90 11.30 62.19 11.49L63.35 11.68C63.91 11.76 64.25 11.89 64.25 12.29C64.25 12.81 63.74 13.06 62.93 13.06C61.96 13.06 61.21 12.70 60.65 12.08L59.49 13.16C60.07 14 61.32 14.52 62.92 14.52ZM71.85 6.20C72.77 6.20 73.09 5.77 73.09 5.22L73.09 4.82C73.09 4.26 72.77 3.84 71.85 3.84C70.92 3.84 70.60 4.26 70.60 4.82L70.60 5.22C70.60 5.77 70.92 6.20 71.85 6.20ZM68.52 14.35L75.01 14.35L75.01 12.74L72.88 12.74L72.88 7.13L68.52 7.13L68.52 8.74L70.81 8.74L70.81 12.74L68.52 12.74ZM78.58 14.35L78.58 9.60C78.58 8.90 79.21 8.55 79.86 8.55C80.67 8.55 81.07 9.04 81.07 9.95L81.07 14.35L83.15 14.35L83.15 9.67C83.15 7.92 82.18 6.96 80.79 6.96C79.63 6.96 78.99 7.63 78.67 8.44L78.58 8.44L78.58 7.13L76.51 7.13L76.51 14.35ZM88.40 14.52C89.95 14.52 90.93 13.93 91.49 13.24L90.37 12.03C89.92 12.56 89.32 12.92 88.47 12.92C87.36 12.92 86.76 12.29 86.76 11.37L86.76 11.24L91.70 11.24L91.70 10.63C91.70 8.37 90.37 6.96 88.21 6.96C86.04 6.96 84.70 8.40 84.70 10.77C84.70 13.08 85.97 14.52 88.40 14.52ZM88.23 8.44C89.12 8.44 89.67 9.03 89.67 9.97L89.67 10.08L86.76 10.08L86.76 9.97C86.76 9.04 87.33 8.44 88.23 8.44ZM96.52 14.52C98.66 14.52 99.88 13.57 99.88 12.07C99.88 10.70 98.85 10.15 97.55 9.95L96.40 9.77C95.84 9.69 95.51 9.56 95.51 9.14C95.51 8.67 95.93 8.41 96.71 8.41C97.65 8.41 98.34 8.78 98.76 9.24L99.79 8.06C99.19 7.36 98.20 6.96 96.78 6.96C94.70 6.96 93.48 7.87 93.48 9.38C93.48 10.75 94.50 11.30 95.79 11.49L96.95 11.68C97.51 11.76 97.85 11.89 97.85 12.29C97.85 12.81 97.34 13.06 96.53 13.06C95.56 13.06 94.81 12.70 94.25 12.08L93.09 13.16C93.67 14 94.92 14.52 96.52 14.52ZM104.92 14.52C107.06 14.52 108.28 13.57 108.28 12.07C108.28 10.70 107.25 10.15 105.95 9.95L104.80 9.77C104.24 9.69 103.91 9.56 103.91 9.14C103.91 8.67 104.33 8.41 105.11 8.41C106.05 8.41 106.74 8.78 107.16 9.24L108.19 8.06C107.59 7.36 106.60 6.96 105.18 6.96C103.10 6.96 101.88 7.87 101.88 9.38C101.88 10.75 102.90 11.30 104.19 11.49L105.35 11.68C105.91 11.76 106.25 11.89 106.25 12.29C106.25 12.81 105.74 13.06 104.93 13.06C103.96 13.06 103.21 12.70 102.65 12.08L101.49 13.16C102.07 14 103.32 14.52 104.92 14.52Z"></path></g><!----><g data-v-423bf9ae="" id="28b26752-d2bf-4dd1-ac97-c7d7968ca735" transform="matrix(2.8125,0,0,2.8125,-7.170000076293945,0)" stroke="none" fill="black"><path d="M2.83 18.247l26.34-9.124L2.83 0zM29.17 32V13.753L2.83 22.877z"></path></g><!----><g data-v-423bf9ae="" id="eee16a18-9e19-4fce-b451-cfd426250f0d" fill="black" transform="matrix(1.2913597524137397,0,0,1.2913597524137397,93.13855359875637,54.356759883305706)"><path d="M4.20 13.94C6.23 13.94 7.67 12.07 7.67 9.11C7.67 6.20 6.23 4.37 4.20 4.37C2.17 4.37 0.73 6.19 0.73 9.11C0.73 12.07 2.17 13.94 4.20 13.94ZM4.20 13.20C2.63 13.20 1.58 11.59 1.58 9.11C1.58 6.65 2.63 5.11 4.20 5.11C5.77 5.11 6.82 6.65 6.82 9.11C6.82 11.59 5.77 13.20 4.20 13.20ZM16.65 13.78L17.43 13.78L17.43 8.36C17.43 7.46 17.35 6.55 17.33 5.64L17.35 5.64L18.33 7.49L21.70 13.78L22.55 13.78L22.55 4.54L21.77 4.54L21.77 9.90C21.77 10.82 21.85 11.77 21.87 12.66L21.85 12.66L17.50 4.54L16.65 4.54ZM32.82 13.78L38.36 13.78L38.36 13.06L33.63 13.06L33.63 4.54L32.82 4.54ZM47.64 13.78L53.16 13.78L53.16 13.06L50.82 13.06L50.82 5.24L53.16 5.24L53.16 4.54L47.64 4.54L47.64 5.24L49.98 5.24L49.98 13.06L47.64 13.06ZM62.85 13.78L63.63 13.78L63.63 8.36C63.63 7.46 63.55 6.55 63.53 5.64L63.55 5.64L64.53 7.49L67.90 13.78L68.75 13.78L68.75 4.54L67.97 4.54L67.97 9.90C67.97 10.82 68.05 11.77 68.07 12.66L68.05 12.66L63.70 4.54L62.85 4.54ZM78.72 13.78L84.41 13.78L84.41 13.06L79.56 13.06L79.56 9.25L83.52 9.25L83.52 8.53L79.56 8.53L79.56 5.24L84.27 5.24L84.27 4.54L78.72 4.54ZM112.11 13.94C114.03 13.94 115.25 12.84 115.25 11.40C115.25 10.00 114.28 9.45 113.19 8.95L111.83 8.36C111.09 8.02 110.14 7.64 110.14 6.65C110.14 5.70 110.95 5.11 112.17 5.11C113.13 5.11 113.88 5.47 114.46 6.02L114.93 5.47C114.31 4.84 113.33 4.37 112.17 4.37C110.50 4.37 109.28 5.33 109.28 6.71C109.28 8.05 110.40 8.68 111.29 9.04L112.66 9.63C113.62 10.07 114.41 10.37 114.41 11.47C114.41 12.50 113.54 13.20 112.11 13.20C111.02 13.20 110.03 12.71 109.34 11.97L108.82 12.56C109.59 13.38 110.73 13.94 112.11 13.94ZM126.98 13.78L127.82 13.78L127.82 5.24L130.96 5.24L130.96 4.54L123.84 4.54L123.84 5.24L126.98 5.24ZM142.80 13.94C144.83 13.94 146.27 12.07 146.27 9.11C146.27 6.20 144.83 4.37 142.80 4.37C140.77 4.37 139.33 6.19 139.33 9.11C139.33 12.07 140.77 13.94 142.80 13.94ZM142.80 13.20C141.23 13.20 140.18 11.59 140.18 9.11C140.18 6.65 141.23 5.11 142.80 5.11C144.37 5.11 145.42 6.65 145.42 9.11C145.42 11.59 144.37 13.20 142.80 13.20ZM155.55 13.78L156.38 13.78L156.38 9.66L158.23 9.66L160.62 13.78L161.57 13.78L159.14 9.62C160.48 9.34 161.36 8.50 161.36 7.01C161.36 5.21 160.10 4.54 158.27 4.54L155.55 4.54ZM156.38 8.96L156.38 5.21L158.10 5.21C159.66 5.21 160.52 5.70 160.52 7.01C160.52 8.33 159.66 8.96 158.10 8.96ZM171.12 13.78L176.81 13.78L176.81 13.06L171.96 13.06L171.96 9.25L175.92 9.25L175.92 8.53L171.96 8.53L171.96 5.24L176.67 5.24L176.67 4.54L171.12 4.54ZM201.39 13.78L202.23 13.78L202.23 9.24L206.57 9.24L206.57 13.78L207.41 13.78L207.41 4.54L206.57 4.54L206.57 8.53L202.23 8.53L202.23 4.54L201.39 4.54ZM219.80 13.94C221.83 13.94 223.27 12.07 223.27 9.11C223.27 6.20 221.83 4.37 219.80 4.37C217.77 4.37 216.33 6.19 216.33 9.11C216.33 12.07 217.77 13.94 219.80 13.94ZM219.80 13.20C218.23 13.20 217.18 11.59 217.18 9.11C217.18 6.65 218.23 5.11 219.80 5.11C221.37 5.11 222.42 6.65 222.42 9.11C222.42 11.59 221.37 13.20 219.80 13.20ZM235.31 13.94C237.23 13.94 238.45 12.84 238.45 11.40C238.45 10.00 237.48 9.45 236.39 8.95L235.03 8.36C234.29 8.02 233.34 7.64 233.34 6.65C233.34 5.70 234.15 5.11 235.37 5.11C236.33 5.11 237.08 5.47 237.66 6.02L238.13 5.47C237.51 4.84 236.53 4.37 235.37 4.37C233.70 4.37 232.48 5.33 232.48 6.71C232.48 8.05 233.60 8.68 234.49 9.04L235.86 9.63C236.82 10.07 237.61 10.37 237.61 11.47C237.61 12.50 236.74 13.20 235.31 13.20C234.22 13.20 233.23 12.71 232.54 11.97L232.02 12.56C232.79 13.38 233.93 13.94 235.31 13.94ZM250.18 13.78L251.02 13.78L251.02 5.24L254.16 5.24L254.16 4.54L247.04 4.54L247.04 5.24L250.18 5.24ZM263.24 13.78L268.76 13.78L268.76 13.06L266.42 13.06L266.42 5.24L268.76 5.24L268.76 4.54L263.24 4.54L263.24 5.24L265.58 5.24L265.58 13.06L263.24 13.06ZM278.45 13.78L279.23 13.78L279.23 8.36C279.23 7.46 279.15 6.55 279.13 5.64L279.15 5.64L280.13 7.49L283.50 13.78L284.35 13.78L284.35 4.54L283.57 4.54L283.57 9.90C283.57 10.82 283.65 11.77 283.67 12.66L283.65 12.66L279.30 4.54L278.45 4.54ZM297.29 13.94C298.49 13.94 299.42 13.48 299.99 12.89L299.99 9.14L297.18 9.14L297.18 9.84L299.19 9.84L299.19 12.56C298.79 12.95 298.10 13.20 297.35 13.20C295.40 13.20 294.27 11.61 294.27 9.13C294.27 6.66 295.48 5.11 297.42 5.11C298.35 5.11 298.94 5.50 299.42 6.01L299.89 5.46C299.40 4.94 298.62 4.37 297.42 4.37C295.02 4.37 293.38 6.19 293.38 9.13C293.38 12.11 294.99 13.94 297.29 13.94Z"></path></g></svg>
